<svg t="1592809483151" class="icon" viewBox="0 0 1024 1024" version="1.1" xmlns="http://www.w3.org/2000/svg" p-id="2351" width="64" height="64"><path d="M864 501.024a32 32 0 1 1 64 0V768a160 160 0 0 1-160 160H256a160 160 0 0 1-160-160V256a160 160 0 0 1 160-160h304.576a32 32 0 1 1 0 64H256a96 96 0 0 0-96 96v512a96 96 0 0 0 96 96h512a96 96 0 0 0 96-96v-266.976z m-13.824-353.056a32 32 0 0 1 46.784 43.648L547.84 566.08a32 32 0 1 1-46.816-43.648L850.176 147.968z" p-id="2352" fill="#ffffff"></path></svg>
